<svg width="10" height="6" viewBox="0 0 10 6" fill="none" xmlns="http://www.w3.org/2000/svg">
<path d="M5.43155 5.86945C5.3513 5.86945 5.27773 5.8564 5.21086 5.83031C5.14398 5.80422 5.0771 5.75855 5.01023 5.69332L1.03778 1.81835C0.930778 1.71398 0.880621 1.57372 0.887309 1.39759C0.893996 1.22145 0.950841 1.08119 1.05784 0.976819C1.1916 0.846349 1.33538 0.790899 1.48919 0.81047C1.64301 0.83004 1.78011 0.892014 1.90048 0.99639L5.43155 4.4408L8.96261 0.99639C9.06962 0.892014 9.2134 0.833302 9.39397 0.820255C9.57453 0.807208 9.71832 0.86592 9.82532 0.99639C9.95907 1.10077 10.0159 1.23776 9.99585 1.40737C9.97579 1.57698 9.91226 1.7205 9.80525 1.83792L5.85287 5.69332C5.78599 5.75855 5.71912 5.80422 5.65224 5.83031C5.58536 5.8564 5.5118 5.86945 5.43155 5.86945Z" fill="#003DA5"/>
</svg>
